<svg xmlns="http://www.w3.org/2000/svg" viewBox="0 0 1200 900"><rect width="1200" height="900" fill="#17352c"/><rect x="55" y="55" width="1090" height="790" rx="42" fill="#21473b"/><rect x="210" y="260" width="330" height="220" rx="22" fill="#fff3b0" transform="rotate(-8 375 370)"/><rect x="280" y="340" width="330" height="220" rx="22" fill="#ffd166" transform="rotate(5 445 450)"/><rect x="340" y="250" width="330" height="220" rx="22" fill="#f8fbff"/><path d="M470 315c40-65 90-65 130 0-10 40-34 78-65 112-31-34-55-72-65-112z" fill="#4cc9f0"/><line x1="392" y1="430" x2="620" y2="430" stroke="#93a3bd" stroke-width="10"/><line x1="392" y1="470" x2="585" y2="470" stroke="#93a3bd" stroke-width="10"/><circle cx="840" cy="420" r="118" fill="#7ae7c7"/><path d="M820 335c26 34 54 68 82 102-31 34-61 68-92 102-37-40-65-74-85-102 29-39 60-72 95-102z" fill="#21473b"/></svg>
