<svg xmlns="http://www.w3.org/2000/svg" viewBox="0 0 1200 900"><rect width="1200" height="900" fill="#102542"/><rect x="55" y="55" width="1090" height="790" rx="42" fill="#163660"/><rect x="120" y="560" width="240" height="150" rx="18" fill="#f7b32b"/><rect x="160" y="505" width="240" height="150" rx="18" fill="#f2d492"/><rect x="200" y="450" width="240" height="150" rx="18" fill="#7ad3ff"/><path d="M720 280c-70 0-132 38-165 96 18-6 38-9 58-9 86 0 156 58 174 137 57-21 98-76 98-141 0-46-20-88-52-117-31 22-70 34-113 34z" fill="#9ad1ff"/><path d="M638 559c62-28 107-90 114-164l-42 21-47-46-44 109z" fill="#f7b32b"/></svg>
