<svg xmlns="http://www.w3.org/2000/svg" viewBox="0 0 1200 900"><rect width="1200" height="900" fill="#112d32"/><rect x="55" y="55" width="1090" height="790" rx="42" fill="#17454d"/><rect x="180" y="250" width="110" height="280" rx="30" fill="#d2f4ff"/><rect x="210" y="150" width="50" height="120" rx="18" fill="#d2f4ff"/><path d="M180 370h110v140c0 44-36 80-80 80h-30c-44 0-80-36-80-80V370z" fill="#7ae7c7"/><path d="M460 250h170l-40 90c-12 28-18 58-18 89v133c0 17-13 30-30 30H378c-17 0-30-13-30-30V429c0-31-6-61-18-89l-40-90z" fill="#d2f4ff"/><path d="M338 430h234v125c0 26-21 47-47 47H385c-26 0-47-21-47-47V430z" fill="#f7b32b"/><circle cx="795" cy="420" r="132" fill="#2bb3ff"/><circle cx="895" cy="510" r="72" fill="#7ae7c7"/><circle cx="726" cy="545" r="52" fill="#f7b32b"/></svg>
