<svg xmlns="http://www.w3.org/2000/svg" viewBox="0 0 1200 900"><rect width="1200" height="900" fill="#1d1d1d"/><rect x="55" y="55" width="1090" height="790" rx="42" fill="#282828"/><rect x="140" y="180" width="420" height="540" rx="24" fill="#f8fbff"/><path d="M200 300h120v100H200zM380 300h120v100H380zM290 450h120v100H290z" fill="#7ad3ff"/><line x1="320" y1="350" x2="380" y2="350" stroke="#1d1d1d" stroke-width="12"/><line x1="410" y1="400" x2="410" y2="450" stroke="#1d1d1d" stroke-width="12"/><line x1="260" y1="550" x2="290" y2="500" stroke="#1d1d1d" stroke-width="12"/><rect x="730" y="250" width="250" height="250" rx="28" fill="#ffd166"/><g stroke="#282828" stroke-width="14"><line x1="760" y1="250" x2="760" y2="210"/><line x1="810" y1="250" x2="810" y2="210"/><line x1="860" y1="250" x2="860" y2="210"/><line x1="910" y1="250" x2="910" y2="210"/><line x1="960" y1="250" x2="960" y2="210"/><line x1="760" y1="500" x2="760" y2="540"/><line x1="810" y1="500" x2="810" y2="540"/><line x1="860" y1="500" x2="860" y2="540"/><line x1="910" y1="500" x2="910" y2="540"/><line x1="960" y1="500" x2="960" y2="540"/></g></svg>
