<svg xmlns="http://www.w3.org/2000/svg" viewBox="0 0 1200 900"><rect width="1200" height="900" fill="#2a2d34"/><rect x="55" y="55" width="1090" height="790" rx="42" fill="#38404b"/><path d="M140 610c150-200 275-300 377-300s227 100 377 300" fill="#f7f7f2"/><path d="M140 610h754v65H140z" fill="#e5e7eb"/><path d="M517 310c67 0 121 54 121 121v179H396V431c0-67 54-121 121-121z" fill="#ffe08a"/><path d="M397 606c42-64 78-91 120-91s78 27 121 91" fill="#fff2c2"/><path d="M760 270v330M655 435h210" stroke="#7ad3ff" stroke-width="12"/><path d="M682 570c45-26 88-105 122-221" stroke="#f7b32b" stroke-width="16" fill="none"/></svg>
