<svg xmlns="http://www.w3.org/2000/svg" viewBox="0 0 1200 900"><rect width="1200" height="900" fill="#14213d"/><rect x="55" y="55" width="1090" height="790" rx="42" fill="#1d3058"/><rect x="150" y="180" width="340" height="520" rx="24" fill="#f8fbff"/><rect x="190" y="220" width="260" height="440" rx="18" fill="#dbe8f8"/><g fill="#2b7fff"><rect x="650" y="250" width="90" height="90" rx="14"/><rect x="770" y="250" width="90" height="90" rx="14"/><rect x="890" y="250" width="90" height="90" rx="14"/><rect x="650" y="370" width="90" height="90" rx="14"/><rect x="770" y="370" width="90" height="90" rx="14"/><rect x="890" y="370" width="90" height="90" rx="14"/><rect x="650" y="490" width="90" height="90" rx="14"/><rect x="770" y="490" width="90" height="90" rx="14"/><rect x="890" y="490" width="90" height="90" rx="14"/></g></svg>
