<svg xmlns="http://www.w3.org/2000/svg" viewBox="0 0 1200 900"><rect width="1200" height="900" fill="#1f2544"/><rect x="55" y="55" width="1090" height="790" rx="42" fill="#29305a"/><rect x="140" y="180" width="460" height="520" rx="26" fill="#f9fbff"/><line x1="190" y1="290" x2="540" y2="290" stroke="#9bb4d3" stroke-width="10"/><line x1="190" y1="360" x2="540" y2="360" stroke="#9bb4d3" stroke-width="10"/><line x1="190" y1="430" x2="540" y2="430" stroke="#9bb4d3" stroke-width="10"/><line x1="190" y1="500" x2="540" y2="500" stroke="#9bb4d3" stroke-width="10"/><line x1="190" y1="570" x2="450" y2="570" stroke="#9bb4d3" stroke-width="10"/><circle cx="810" cy="365" r="145" fill="#ffd166"/><path d="M780 260c35 55 35 120 0 175m60-175c35 55 35 120 0 175" stroke="#1f2544" stroke-width="12" fill="none"/><path d="M705 586c50-44 131-44 181 0" stroke="#7ad3ff" stroke-width="18" fill="none"/><rect x="660" y="625" width="240" height="34" rx="17" fill="#7ad3ff"/></svg>
